<svg id="icons" enable-background="new 0 0 64 64" height="512" viewBox="0 0 64 64" width="512" xmlns="http://www.w3.org/2000/svg"><path d="m63.996 6.003c0-1.654-1.346-3-3-3h-58c-1.654 0-3 1.346-3 3v2c0 .014.007.025.008.039v51.955c0 .553.447 1 1 1h62c.553 0 1-.447 1-1v-51.994c0-.014-.007-.025-.008-.039zm-61-1h1.02c-.552 0-.994.447-.994 1s.452 1 1.005 1c.552 0 1-.447 1-1s-.448-1-1-1h2.989c-.552 0-.994.447-.994 1s.452 1 1.005 1c.552 0 1-.447 1-1s-.448-1-1-1h2.989c-.552 0-.994.447-.994 1s.452 1 1.005 1c.552 0 1-.447 1-1s-.448-1-1-1h50.97c.552 0 1 .448 1 1v1h-51.97-3-3-2.03v-1c-.001-.552.447-1 .999-1zm59.008 53.994h-60v-49.994h60z"/><path d="m19.016 52.015h-12.995c-.553 0-1 .447-1 1s.447 1 1 1h12.994c.553 0 1-.447 1-1s-.447-1-.999-1z"/><path d="m58.014 52.015h-12.994c-.553 0-1 .447-1 1s.447 1 1 1h12.994c.553 0 1-.447 1-1s-.448-1-1-1z"/><path d="m38.502 52.015h-12.994c-.553 0-1 .447-1 1s.447 1 1 1h12.994c.553 0 1-.447 1-1s-.447-1-1-1z"/><path d="m35.52 55.015h-7.031c-.553 0-1 .447-1 1s.447 1 1 1h7.031c.553 0 1-.447 1-1s-.448-1-1-1z"/><path d="m55.02 55.015h-7.006c-.553 0-1 .447-1 1s.447 1 1 1h7.006c.553 0 1-.447 1-1s-.448-1-1-1z"/><path d="m16.02 55.015h-6.999c-.553 0-1 .447-1 1s.447 1 1 1h6.998c.553 0 1-.447 1-1s-.447-1-.999-1z"/><path d="m5.02 41.009h54c.553 0 1-.447 1-1v-27.99c0-.553-.447-1-1-1h-54c-.553 0-1 .447-1 1v27.99c0 .553.447 1 1 1zm1-27.99h52v25.99h-52z"/><path d="m54.008 19.008h-18.997c-.553 0-1 .447-1 1s.447 1 1 1h18.997c.553 0 1-.447 1-1s-.447-1-1-1z"/><path d="m54.008 22.016h-18.997c-.553 0-1 .447-1 1s.447 1 1 1h18.997c.553 0 1-.447 1-1s-.447-1-1-1z"/><path d="m45.009 25.023h-9.998c-.553 0-1 .447-1 1s.447 1 1 1h9.998c.553 0 1-.447 1-1s-.447-1-1-1z"/><path d="m41.005 30.016h-5.992c-.553 0-1 .447-1 1s.447 1 1 1h5.992c.553 0 1-.447 1-1s-.447-1-1-1z"/><path d="m45.999 30.016c0-.553-.447-1-1-1h-1.004c-.012 0-.021.006-.033.007-.063.002-.122.022-.185.037-.069.016-.139.025-.201.055-.01.004-.02.003-.029.008-.043.021-.069.058-.107.084-.063.043-.124.082-.175.137-.043.047-.07.101-.104.153-.035.056-.072.107-.096.17-.025.067-.031.137-.042.208-.007.049-.028.092-.028.142 0 .011.006.021.006.031.002.065.024.128.039.192.016.067.025.135.054.195.004.01.003.02.008.029l.365.727c-.275.179-.468.473-.468.825 0 .553.447 1 1 1h1 .001c.116 0 .233-.027.348-.07.021-.008.042-.014.062-.022.013-.006.025-.008.038-.014.043-.021.069-.058.107-.084.063-.043.124-.082.175-.137.043-.047.07-.101.104-.153.035-.056.072-.107.096-.17.025-.067.031-.137.042-.208.007-.048.028-.092.028-.142 0-.011-.006-.021-.006-.031-.002-.065-.024-.127-.039-.192-.016-.066-.025-.135-.054-.195-.004-.01-.003-.02-.008-.029l-.364-.725c.277-.179.47-.475.47-.828z"/><path d="m36 47.003c0-2.206-1.794-4-4-4s-4 1.794-4 4 1.794 4 4 4 4-1.794 4-4zm-6 0c0-1.103.897-2 2-2s2 .897 2 2-.897 2-2 2-2-.898-2-2z"/><path d="m16.519 47.003c0-2.206-1.794-4-4-4s-4 1.794-4 4 1.794 4 4 4 4-1.794 4-4zm-6 0c0-1.103.897-2 2-2s2 .897 2 2-.897 2-2 2-2-.898-2-2z"/><path d="m55.517 47.003c0-2.206-1.794-4-4-4s-4 1.794-4 4 1.794 4 4 4 4-1.794 4-4zm-6 0c0-1.103.897-2 2-2s2 .897 2 2-.897 2-2 2-2-.898-2-2z"/><path d="m30.381 23.078c-.122-.051-.252-.077-.382-.077h-3v-7.002c0-.13-.026-.26-.077-.382-.102-.245-.296-.439-.541-.541-.122-.051-.252-.077-.382-.077h-7.999c-.101 0-.192.029-.283.058-.031.009-.064.006-.095.019-.127.052-.24.128-.334.224l-3.996 3.995c-.093.092-.166.203-.217.326-.051.122-.077.252-.077.382v3.586l-3.706 3.706c-.093.092-.166.203-.217.326-.051.122-.077.252-.077.382v8.001c0 .553.447 1 1 1h8 8c.13 0 .26-.026.382-.077.123-.051.234-.124.326-.217l3.999-3.999c.093-.092.166-.203.217-.326.051-.122.077-.252.077-.382v-8.001c0-.13-.026-.26-.077-.382-.102-.246-.296-.44-.541-.542zm-1.382 8.51-2.001 2.001v-5.173l2.001-2.001zm-11.001-4.586h-3v-2.996c0-.003 0-.007 0-.01v-2.994h6v6zm.418-10.003h5.169l-2.003 2.003h-5.17zm6.583 6.586-2.001 2.001v-5.172l2.001-2.001zm1.412 1.416h1.174l-2.001 2.001h-1.174zm-13.413 2.001h-.586l.586-.586zm-2 2h3 3v6.001h-6zm8 0h3 3v6.001h-6z"/></svg>